<svg width="1024" height="1024" viewBox="0 0 1024 1024" xmlns="http://www.w3.org/2000/svg">
  <defs>
    <linearGradient id="bgGradient" x1="0%" y1="0%" x2="100%" y2="100%">
      <stop offset="0%" style="stop-color:#4F46E5;stop-opacity:1" />
      <stop offset="100%" style="stop-color:#7C3AED;stop-opacity:1" />
    </linearGradient>
    <linearGradient id="iconGradient" x1="0%" y1="0%" x2="100%" y2="100%">
      <stop offset="0%" style="stop-color:#FFFFFF;stop-opacity:1" />
      <stop offset="100%" style="stop-color:#F1F5F9;stop-opacity:1" />
    </linearGradient>
  </defs>

  <!-- Background -->
  <rect width="1024" height="1024" rx="180" ry="180" fill="url(#bgGradient)"/>

  <!-- Main document icon -->
  <rect x="256" y="128" width="512" height="680" rx="32" ry="32" fill="url(#iconGradient)" stroke="#E2E8F0" stroke-width="8"/>

  <!-- Document lines -->
  <rect x="320" y="240" width="320" height="24" rx="12" fill="#64748B" opacity="0.7"/>
  <rect x="320" y="300" width="384" height="24" rx="12" fill="#64748B" opacity="0.5"/>
  <rect x="320" y="360" width="256" height="24" rx="12" fill="#64748B" opacity="0.5"/>
  <rect x="320" y="420" width="352" height="24" rx="12" fill="#64748B" opacity="0.5"/>
  <rect x="320" y="480" width="288" height="24" rx="12" fill="#64748B" opacity="0.5"/>

  <!-- Chart/Graph representation -->
  <rect x="320" y="560" width="384" height="180" rx="16" fill="#F8FAFC" stroke="#E2E8F0" stroke-width="4"/>

  <!-- Bar chart bars -->
  <rect x="360" y="660" width="48" height="60" rx="8" fill="#10B981"/>
  <rect x="440" y="640" width="48" height="80" rx="8" fill="#3B82F6"/>
  <rect x="520" y="620" width="48" height="100" rx="8" fill="#8B5CF6"/>
  <rect x="600" y="680" width="48" height="40" rx="8" fill="#F59E0B"/>

  <!-- Plus icon in corner -->
  <circle cx="680" y="248" r="48" fill="#10B981"/>
  <rect x="656" y="224" width="48" height="8" rx="4" fill="white"/>
  <rect x="676" y="204" width="8" height="48" rx="4" fill="white"/>
</svg>
